<?xml version="1.0" encoding="UTF-8" standalone="no"?>
<svg
   width="685.23627"
   height="365.0849"
   viewBox="0 0 685.23627 365.0849"
   fill="none"
   version="1.1"
   id="svg461"
   xml:space="preserve"
   xmlns="http://www.w3.org/2000/svg"><defs
     id="defs459"><rect
       x="43.693111"
       y="336.69397"
       width="610.41846"
       height="147.78552"
       id="rect1013" /><rect
       x="-156.21626"
       y="99.290001"
       width="394.51227"
       height="338.90988"
       id="rect746" /><clipPath
       id="clip0_142:2"><rect
         width="318.41"
         height="328.58701"
         fill="#ffffff"
         transform="translate(178)"
         id="rect456"
         x="0"
         y="0" /></clipPath></defs><text
     xml:space="preserve"
     id="text1011"
     style="font-style:normal;font-variant:normal;font-weight:normal;font-stretch:normal;font-family:Arial;white-space:pre;shape-inside:url(#rect1013);display:inline;fill:#0079d9;fill-opacity:1"
     transform="matrix(10.990714,0,0,10.990714,-210.40239,-3586.4432)"><tspan
       x="43.693359"
       y="347.50241"
       id="tspan6340">404</tspan></text><g
     id="g1363"
     transform="translate(410.95455,18.722307)"
     style="fill:#0079d9;fill-opacity:1"><g
       aria-label=":("
       transform="matrix(20.57155,0,0,20.57155,2847.3993,-2033.2268)"
       id="text744"
       style="white-space:pre;shape-inside:url(#rect746);fill:#0079d9;fill-opacity:1"><path
         d="m -152.13867,106.98093 q 0,-1.69336 0.52734,-3.04102 0.53321,-1.34765 1.63477,-2.53711 h 1.01953 q -1.0957,1.21875 -1.61133,2.58985 -0.50976,1.37109 -0.50976,3 0,1.62304 0.5039,2.98828 0.50977,1.36523 1.61719,2.60156 h -1.01953 q -1.10742,-1.19531 -1.63477,-2.54297 -0.52734,-1.35351 -0.52734,-3.03515 z"
         style="font-family:Arial;fill:#0079d9;fill-opacity:1"
         id="path957" /></g><circle
       style="fill:#0079d9;fill-opacity:1"
       id="path953"
       cx="-332.11414"
       cy="119.08469"
       r="12.871583" /><circle
       style="fill:#0079d9;fill-opacity:1"
       id="circle1009"
       cx="-332.11414"
       cy="213.81749"
       r="12.871583" /></g></svg>
